<svg version="1.2" baseProfile="tiny" id="Слой_1" xmlns="http://www.w3.org/2000/svg" viewBox="0 0 24 24"><path fill="#393A39" d="M18.7,15.3c-1.3,0-2.5,0.6-3.3,1.6l-6.3-3.5c0.1-0.4,0.2-0.9,0.2-1.4c0-0.5-0.1-0.9-0.2-1.4l6.3-3.5 c0.8,1,1.9,1.6,3.3,1.6c2.3,0,4.1-1.8,4.1-4.1S21,0.5,18.7,0.5s-4.1,1.8-4.1,4.1c0,0.5,0.1,0.9,0.2,1.4L8.5,9.5 c-0.8-1-1.9-1.6-3.3-1.6C3,7.9,1.1,9.7,1.1,12s1.9,4.1,4.1,4.1c1.3,0,2.5-0.6,3.3-1.6l6.3,3.5c-0.2,0.4-0.2,0.9-0.2,1.4 c0,2.3,1.8,4.1,4.1,4.1s4.1-1.8,4.1-4.1S21,15.3,18.7,15.3z M18.7,1.8c1.6,0,2.8,1.3,2.8,2.8s-1.3,2.8-2.8,2.8 c-1.6,0-2.8-1.3-2.8-2.8S17.2,1.8,18.7,1.8z M5.3,14.8c-1.6,0-2.8-1.3-2.8-2.8s1.3-2.8,2.8-2.8s2.8,1.3,2.8,2.8S6.8,14.8,5.3,14.8z M18.7,22.2c-1.6,0-2.8-1.3-2.8-2.8c0-1.6,1.3-2.8,2.8-2.8c1.6,0,2.8,1.3,2.8,2.8C21.6,21,20.3,22.2,18.7,22.2z"/></svg>