<svg version="1.2" baseProfile="tiny" id="Слой_1" xmlns="http://www.w3.org/2000/svg" viewBox="0 0 160 60"><path fill-rule="evenodd" fill="#E4032E" d="M101.9,42.3c-4.8,0-7.2,1.9-8.3,7.3c-1,5,1.2,7.6,6.1,7.7c1.8,0,3.1-0.5,4.2-1.4 c0.4,0.8,1.4,1.2,3.4,1.2l1.4,0l1.4-6.8l1.7-7.8l-1.6,0c-2.2,0-2.9,0.2-3.6,0.8C105.8,42.6,104.4,42.3,101.9,42.3L101.9,42.3z M102.4,46.5L102.4,46.5c0.5,0,1,0.1,1.5,0.4c1.2,0.7,1.3,2.2,0.9,4c-0.3,1.5-0.5,2.4-0.8,3.5c-0.1,0.3-0.2,0.3-0.2,0 c0-0.2,0-0.4-0.2-0.9c-0.3-1.3-1.3-1.2-2.2-1.3c-1.6,0-2.4-1.2-2.1-3C99.6,47.6,100.8,46.4,102.4,46.5L102.4,46.5z"/><path fill-rule="evenodd" fill="#E4032E" d="M114.4,42.5h5.4c-0.6,2.6-0.6,2.5-1.9,8.6c-0.1,0.6,0.1,1.1,0.9,0.8 c1.2-0.4,3.9-1.3,4.4-1.6l1.7-7.8h5.4l-3.1,14.6H126c-2.3,0-3.4-0.7-3.6-1.8c-2.1,0.8-5.7,2-7.7,1.8c-1.8-0.2-3.1-1.3-2.6-3.7 C113.5,46.3,113.5,46.2,114.4,42.5L114.4,42.5z"/><path fill-rule="evenodd" fill="#E4032E" d="M132.9,42.5h5.4l-1,4.6c-0.1,0.5,0.3,0.5,0.6,0.5c1.2,0,2.5,0,3.7,0 c0.3,0,0.5-0.1,0.6-0.5l0,0l1-4.6h5.4l-3.1,14.6h-5.4l0.9-4c0.1-0.4-0.1-0.7-0.6-0.7c-1.2,0-2.5,0-3.7,0c-0.3,0-0.5,0.1-0.6,0.5 l-0.9,4.2h-5.4L132.9,42.5L132.9,42.5z"/><path fill-rule="evenodd" fill="#E4032E" d="M14.4,42.5h5.4l-1,4.5c0,0.3-0.1,0.5,0.4,0.6l0.7,0c0.4,0,0.4-0.4,0.6-0.7 c1.3-2.4,3.7-4.3,6.4-4.8c1.4-0.2,3.8-0.3,5.2,0.1c2.8,0.7,4.6,3.2,4.2,6.3c-0.1,1-0.4,2.3-0.7,3.2c-0.9,2.4-2.9,4.3-5.2,5.2 c-1.8,0.7-5,0.7-6.8,0.3c-2.1-0.4-3.5-1.9-4.1-3.9c-0.1-0.2-0.1-0.4-0.2-0.6c-0.1-0.2-0.2-0.4-0.6-0.4c-0.2,0-0.5,0-0.7,0 c-0.2,0.1-0.3,0.2-0.4,0.3c-0.1,0.1-0.1,0.2-0.1,0.4l-0.8,3.9h-5.4L14.4,42.5L14.4,42.5z M29.2,46.5L29.2,46.5 c1.2,0.2,2,1.2,1.8,2.4c-0.1,0.5-0.3,1.4-0.4,1.8c-0.4,1.1-1.5,1.9-2.6,2.1c-0.3,0.1-0.9,0.1-1.3,0c-1.1-0.2-1.9-1-1.9-2.1 c0-0.5,0.3-1.7,0.5-2.2c0.5-1.1,1.6-2,2.9-2.1C28.5,46.4,28.9,46.4,29.2,46.5L29.2,46.5z"/><path fill-rule="evenodd" fill="#E4032E" d="M39.8,42.5h5.4l-1,4.6c-0.1,0.5,0.3,0.5,0.6,0.5c1.2,0,2.5,0,3.7,0 c0.3,0,0.5-0.1,0.6-0.5l0,0l1-4.6h5.4l-3.1,14.6h-5.4l0.9-4c0.1-0.4-0.1-0.7-0.6-0.7c-1.2,0-2.5,0-3.7,0c-0.3,0-0.5,0.1-0.6,0.5 l-0.9,4.2h-5.4L39.8,42.5L39.8,42.5z"/><path fill-rule="evenodd" fill="#E4032E" d="M58,42.5h5.4c-0.6,2.6-0.6,2.5-1.9,8.6c-0.1,0.6,0.1,1.1,0.9,0.8 c0.9-0.3,2.7-0.9,3.8-1.3c0.3-0.1,0.5-0.2,0.7-0.3l1.7-7.8h5.4L71,57.1l-1.7,0c-2.3,0-3.1-0.7-3.3-1.8c-2.1,0.8-5.7,2-7.7,1.8 c-1.8-0.2-3.1-1.3-2.6-3.7C57.2,46.2,57.2,46.1,58,42.5L58,42.5z"/><path fill="#E4032E" d="M89.9,57.1l-5.6,0l2-9.2c0.1-0.7,0.2-1-0.8-1.1c-0.6,0-1.3,0.2-1.6,0.5c-2,1.7-2.1,5.8-3.9,8.2 c-1.2,1.6-2.2,1.6-4,1.6c-0.8,0-0.9,0-2.7,0l1-4.8c1.7,0.1,1.7-0.1,2.3-1.8c0.6-1.6,0.8-2.4,1.5-4.2c0.4-1,1-1.8,1.9-2.5 c1.5-1.2,3.3-1.3,5.2-1.3c2.1,0,3.8,0,7.8,0L89.9,57.1L89.9,57.1z"/><path fill="#E4032E" d="M126.3,36.9L126.3,36.9c-0.4,0.4-0.9,0.8-1.6,1c-1.3,0.5-2.7,0.5-3.4,0.2c-0.4-0.2-0.7-0.4-0.9-0.7 c-0.1-0.2-0.3-0.3-0.4-0.5l-2.1,1.3c0.2,0.6,0.5,1.1,1.1,1.6c0.9,0.7,2,1.1,3.3,1c1.7,0,3.2-0.6,4.4-1.6c0.6-0.5,0.9-0.9,1.2-1.3 L126.3,36.9L126.3,36.9z"/><g fill-rule="evenodd"><path fill="#E4032E" d="M95.1,11.3c-8.2,6.1-29.7,17.8-47,21c17.9-0.6,28.6-4.2,45.4-13.3L95.1,11.3 L95.1,11.3z"/><path fill="#E4032E" d="M97,2.4c-8.8,8.1-39.1,25.4-55.1,29.9c15.9-1.1,46.1-18.9,53.9-24L97,2.4L97,2.4z"/><path fill="#A91D0C" d="M95.1,11.3c2.5,6.1,10.5,17.8,19.1,21c-9.8-0.6-14.5-4.2-20.7-13.3L95.1,11.3 L95.1,11.3z"/><path fill="#A91D0C" d="M97,2.4c2.2,8.1,13.2,25.4,20.6,29.9c-8.5-1.1-19.3-18.9-21.8-24L97,2.4L97,2.4z"/></g></svg>