<?xml version="1.0" encoding="utf-8"?>
<!-- Generator: Adobe Illustrator 19.2.1, SVG Export Plug-In . SVG Version: 6.00 Build 0)  -->
<svg version="1.2" baseProfile="tiny" id="Слой_1"
	 xmlns="http://www.w3.org/2000/svg" xmlns:xlink="http://www.w3.org/1999/xlink" x="0px" y="0px" viewBox="0 0 40 40"
	 xml:space="preserve">
<g>
	<circle fill="#E39444" cx="20" cy="20" r="19.4"/>
	<g>
		<path fill="#FFFFFF" d="M18.1,24c-0.7-0.2-1.4-0.4-2-0.7c-0.2-0.1-0.4-0.2-0.7-0.4c-0.6-0.4-0.8-1.2-0.4-1.8
			c0.4-0.6,1.2-0.8,1.8-0.5c0.6,0.4,1.3,0.7,2,0.8c1.4,0.3,2.8,0,4-0.7c0.3-0.2,0.5-0.3,0.8-0.3c0.6,0,1.1,0.4,1.3,0.9
			c0.2,0.6,0,1.2-0.5,1.5c-0.8,0.5-1.6,0.9-2.5,1.1c0,0-0.1,0-0.1,0c0,0,0.1,0.1,0.1,0.1c0.8,0.8,1.6,1.6,2.4,2.4
			c0.5,0.5,0.6,1.1,0.3,1.6c-0.4,0.8-1.5,0.9-2.1,0.3c-0.8-0.8-1.6-1.6-2.4-2.4c0,0-0.1-0.1-0.1-0.1c0,0,0,0.1-0.1,0.1
			c-0.8,0.8-1.6,1.6-2.4,2.4c-0.5,0.5-1.4,0.5-1.9,0c-0.5-0.5-0.5-1.3,0-1.8c0.1-0.1,0.1-0.1,0.2-0.2C16.5,25.6,17.3,24.8,18.1,24
			C18.1,24.1,18.1,24,18.1,24z"/>
		<path fill="#FFFFFF" d="M20,11.2c2.5,0,4.5,2,4.5,4.5c0,2.5-2,4.5-4.5,4.5c-2.5,0-4.5-2-4.6-4.5C15.4,13.2,17.5,11.2,20,11.2z
			 M21.9,15.7c0-1-0.8-1.9-1.9-1.9c-1,0-1.9,0.8-1.9,1.9c0,1,0.8,1.9,1.8,1.9C21,17.6,21.9,16.8,21.9,15.7z"/>
	</g>
</g>
</svg>
