<?xml version="1.0" encoding="utf-8"?>
<!-- Generator: Adobe Illustrator 19.2.1, SVG Export Plug-In . SVG Version: 6.00 Build 0)  -->
<svg version="1.2" baseProfile="tiny" id="Слой_1"
	 xmlns="http://www.w3.org/2000/svg" xmlns:xlink="http://www.w3.org/1999/xlink" x="0px" y="0px" viewBox="0 0 24 24"
	 xml:space="preserve">
<g>
	<circle fill="#E39444" cx="12" cy="12" r="11.6"/>
	<g>
		<path fill="#FFFFFF" d="M10.9,14.4c-0.4-0.1-0.8-0.2-1.2-0.4c-0.1-0.1-0.3-0.1-0.4-0.2c-0.4-0.2-0.5-0.7-0.3-1.1
			c0.2-0.4,0.7-0.5,1.1-0.3c0.4,0.2,0.8,0.4,1.2,0.5c0.9,0.2,1.7,0,2.4-0.4c0.2-0.1,0.3-0.2,0.5-0.2c0.4,0,0.7,0.2,0.8,0.6
			c0.1,0.3,0,0.7-0.3,0.9c-0.5,0.3-1,0.5-1.5,0.6c0,0,0,0-0.1,0c0,0,0,0,0.1,0.1c0.5,0.5,1,1,1.4,1.4c0.3,0.3,0.3,0.7,0.2,1
			c-0.3,0.5-0.9,0.5-1.3,0.2c-0.5-0.5-1-1-1.4-1.4c0,0,0,0-0.1-0.1c0,0,0,0.1,0,0.1c-0.5,0.5-1,1-1.4,1.4c-0.3,0.3-0.8,0.3-1.1,0
			c-0.3-0.3-0.3-0.8,0-1.1c0,0,0.1-0.1,0.1-0.1C9.9,15.4,10.4,14.9,10.9,14.4C10.9,14.4,10.9,14.4,10.9,14.4z"/>
		<path fill="#FFFFFF" d="M12,6.7c1.5,0,2.7,1.2,2.7,2.7c0,1.5-1.2,2.7-2.7,2.7c-1.5,0-2.7-1.2-2.7-2.7C9.3,7.9,10.5,6.7,12,6.7z
			 M13.1,9.4c0-0.6-0.5-1.1-1.1-1.1c-0.6,0-1.1,0.5-1.1,1.1c0,0.6,0.5,1.1,1.1,1.1C12.6,10.6,13.1,10.1,13.1,9.4z"/>
	</g>
</g>
</svg>
