<?xml version="1.0" encoding="utf-8"?>
<!-- Generator: Adobe Illustrator 21.0.0, SVG Export Plug-In . SVG Version: 6.00 Build 0)  -->
<svg version="1.2" baseProfile="tiny" id="Слой_1"
	 xmlns="http://www.w3.org/2000/svg" xmlns:xlink="http://www.w3.org/1999/xlink" x="0px" y="0px" viewBox="0 0 14 16"
	 overflow="scroll" xml:space="preserve">
<g>
	<g>
		<g>
			<path d="M12.5,8.7V7.3h-2.1c0.7-0.8,1.2-1.8,1.2-3C11.7,1.9,9.7,0,7.3,0C5,0,3,1.9,3,4.3l0,3H1.8v1.3H3L3,10H1.8v1.3H3L3,16
				l1.3,0l0-4.7h8.2V10H4.4l0-1.3H12.5z M4.4,4.3c0-1.6,1.3-3,3-3c1.6,0,3,1.3,3,3s-1.3,3-3,3h-3L4.4,4.3z"/>
		</g>
	</g>
</g>
</svg>
