<svg xmlns="http://www.w3.org/2000/svg" xmlns:xlink="http://www.w3.org/1999/xlink" height="294" viewBox="0 0 48 294" width="48"><svg height="40" viewBox="0 0 40 40" width="40" x="4" y="4"><path fill="#4D5E92" d="M17.3,30.6h4.4V20h2.9l0.4-3.6h-3.3l0-1.8c0-0.9,0.1-1.5,1.5-1.5h1.8V9.4H22c-3.5,0-4.7,1.8-4.7,4.7v2.2 h-2.2V20h2.2V30.6z M20,39.4C9.3,39.4,0.6,30.7,0.6,20C0.6,9.3,9.3,0.6,20,0.6S39.4,9.3,39.4,20C39.4,30.7,30.7,39.4,20,39.4z"/></svg><svg height="40" viewBox="0 0 40 40" width="40" x="4" y="48"><circle fill="#E39444" cx="20" cy="20" r="19.4"/><g fill="#FFF"><path d="M18.1,24c-0.7-0.2-1.4-0.4-2-0.7c-0.2-0.1-0.4-0.2-0.7-0.4c-0.6-0.4-0.8-1.2-0.4-1.8 c0.4-0.6,1.2-0.8,1.8-0.5c0.6,0.4,1.3,0.7,2,0.8c1.4,0.3,2.8,0,4-0.7c0.3-0.2,0.5-0.3,0.8-0.3c0.6,0,1.1,0.4,1.3,0.9 c0.2,0.6,0,1.2-0.5,1.5c-0.8,0.5-1.6,0.9-2.5,1.1c0,0-0.1,0-0.1,0c0,0,0.1,0.1,0.1,0.1c0.8,0.8,1.6,1.6,2.4,2.4 c0.5,0.5,0.6,1.1,0.3,1.6c-0.4,0.8-1.5,0.9-2.1,0.3c-0.8-0.8-1.6-1.6-2.4-2.4c0,0-0.1-0.1-0.1-0.1c0,0,0,0.1-0.1,0.1 c-0.8,0.8-1.6,1.6-2.4,2.4c-0.5,0.5-1.4,0.5-1.9,0c-0.5-0.5-0.5-1.3,0-1.8c0.1-0.1,0.1-0.1,0.2-0.2C16.5,25.6,17.3,24.8,18.1,24 C18.1,24.1,18.1,24,18.1,24z"/><path d="M20,11.2c2.5,0,4.5,2,4.5,4.5c0,2.5-2,4.5-4.5,4.5c-2.5,0-4.5-2-4.6-4.5C15.4,13.2,17.5,11.2,20,11.2z M21.9,15.7c0-1-0.8-1.9-1.9-1.9c-1,0-1.9,0.8-1.9,1.9c0,1,0.8,1.9,1.8,1.9C21,17.6,21.9,16.8,21.9,15.7z"/></g></svg><svg height="40" viewBox="0 0 40 40" width="40" x="4" y="92"><circle fill="#FFF" cx="20" cy="20" r="19.4"/><path fill="#4D729D" d="M20,39.4C9.3,39.4,0.6,30.7,0.6,20S9.3,0.6,20,0.6S39.4,9.3,39.4,20S30.7,39.4,20,39.4z M31.5,14.1 c-0.3-0.3-1.7-0.3-3-0.3c-1.4,0-2.7,0-3,0.1c-0.3,0.1-0.9,1.7-1.8,3.3c-1,1.8-2.1,3.6-2.9,3.6c-1,0-0.7-3-0.7-5.2 c0-1.5-0.2-1.9-0.4-2.1c-0.5-0.3-1.9-0.7-1.9-0.7s-4.2-0.3-4.8,1.5c0.8,0.1,2.2-0.2,1.6,5.5c0,0.3-0.6,2.6-2.6-0.5 c-0.5-0.8-2.4-5.5-3-5.5c-2.2-0.1-4.3-0.1-5.1,0.3C3.3,14.4,5,17.7,7.7,22c2.3,3.5,4.6,6.3,8.8,7c0.8,0.1,2.8,0.2,3.4-0.1 c0.4-0.2-0.1-3.3,1.4-3.6c0.7-0.1,3.2,3.2,4.1,3.6c0.6,0.2,1.8,0.3,3.1,0.3c1.4,0,3,0.1,3.1-0.8c0.3-2.1-4.2-4.9-4.4-6.2 c-0.1-0.9,1.7-2.7,2.6-4C31,16.6,32.2,14.7,31.5,14.1z"/><image width="138" height="138" xlink:href="9456625C5527B887.png" transform="matrix(.24 0 0 .24 6.29 6.29)"/></svg><svg height="24" viewBox="0 0 24 24" width="24" x="4" y="136"><path fill="#4D5E92" d="M10.3,18.4H13V12h1.8L15,9.8h-2l0-1.1c0-0.6,0.1-0.9,0.9-0.9H15V5.6h-1.8c-2.1,0-2.9,1.1-2.9,2.9v1.3H9V12 h1.3V18.4z M12,23.8C5.5,23.8,0.2,18.5,0.2,12C0.2,5.5,5.5,0.2,12,0.2S23.8,5.5,23.8,12C23.8,18.5,18.5,23.8,12,23.8z"/></svg><svg height="24" viewBox="0 0 24 24" width="24" x="4" y="164"><circle fill="#E39444" cx="12" cy="12" r="11.6"/><g fill="#FFF"><path d="M10.9,14.4c-0.4-0.1-0.8-0.2-1.2-0.4c-0.1-0.1-0.3-0.1-0.4-0.2c-0.4-0.2-0.5-0.7-0.3-1.1 c0.2-0.4,0.7-0.5,1.1-0.3c0.4,0.2,0.8,0.4,1.2,0.5c0.9,0.2,1.7,0,2.4-0.4c0.2-0.1,0.3-0.2,0.5-0.2c0.4,0,0.7,0.2,0.8,0.6 c0.1,0.3,0,0.7-0.3,0.9c-0.5,0.3-1,0.5-1.5,0.6c0,0,0,0-0.1,0c0,0,0,0,0.1,0.1c0.5,0.5,1,1,1.4,1.4c0.3,0.3,0.3,0.7,0.2,1 c-0.3,0.5-0.9,0.5-1.3,0.2c-0.5-0.5-1-1-1.4-1.4c0,0,0,0-0.1-0.1c0,0,0,0.1,0,0.1c-0.5,0.5-1,1-1.4,1.4c-0.3,0.3-0.8,0.3-1.1,0 c-0.3-0.3-0.3-0.8,0-1.1c0,0,0.1-0.1,0.1-0.1C9.9,15.4,10.4,14.9,10.9,14.4C10.9,14.4,10.9,14.4,10.9,14.4z"/><path d="M12,6.7c1.5,0,2.7,1.2,2.7,2.7c0,1.5-1.2,2.7-2.7,2.7c-1.5,0-2.7-1.2-2.7-2.7C9.3,7.9,10.5,6.7,12,6.7z M13.1,9.4c0-0.6-0.5-1.1-1.1-1.1c-0.6,0-1.1,0.5-1.1,1.1c0,0.6,0.5,1.1,1.1,1.1C12.6,10.6,13.1,10.1,13.1,9.4z"/></g></svg><svg height="24" viewBox="0 0 24 24" width="24" x="4" y="192"><path fill="#393A39" d="M18.7,15.3c-1.3,0-2.5,0.6-3.3,1.6l-6.3-3.5c0.1-0.4,0.2-0.9,0.2-1.4c0-0.5-0.1-0.9-0.2-1.4l6.3-3.5 c0.8,1,1.9,1.6,3.3,1.6c2.3,0,4.1-1.8,4.1-4.1S21,0.5,18.7,0.5s-4.1,1.8-4.1,4.1c0,0.5,0.1,0.9,0.2,1.4L8.5,9.5 c-0.8-1-1.9-1.6-3.3-1.6C3,7.9,1.1,9.7,1.1,12s1.9,4.1,4.1,4.1c1.3,0,2.5-0.6,3.3-1.6l6.3,3.5c-0.2,0.4-0.2,0.9-0.2,1.4 c0,2.3,1.8,4.1,4.1,4.1s4.1-1.8,4.1-4.1S21,15.3,18.7,15.3z M18.7,1.8c1.6,0,2.8,1.3,2.8,2.8s-1.3,2.8-2.8,2.8 c-1.6,0-2.8-1.3-2.8-2.8S17.2,1.8,18.7,1.8z M5.3,14.8c-1.6,0-2.8-1.3-2.8-2.8s1.3-2.8,2.8-2.8s2.8,1.3,2.8,2.8S6.8,14.8,5.3,14.8z M18.7,22.2c-1.6,0-2.8-1.3-2.8-2.8c0-1.6,1.3-2.8,2.8-2.8c1.6,0,2.8,1.3,2.8,2.8C21.6,21,20.3,22.2,18.7,22.2z"/></svg><svg height="24" viewBox="0 0 24 24" width="24" x="4" y="220"><circle fill="#FFF" cx="12" cy="12" r="11.8"/><path fill="#4D729D" d="M12,23.8C5.5,23.8,0.3,18.5,0.3,12S5.5,0.3,12,0.3S23.8,5.5,23.8,12S18.5,23.8,12,23.8z M19,8.6 c-0.2-0.2-1-0.2-1.8-0.2c-0.8,0-1.6,0-1.8,0.1c-0.2,0.1-0.6,1-1.1,2c-0.6,1.1-1.3,2.2-1.7,2.2c-0.6,0-0.4-1.8-0.4-3.2 c0-0.9-0.1-1.2-0.2-1.2c-0.3-0.2-1.2-0.4-1.2-0.4S8.2,7.6,7.8,8.8c0.5,0.1,1.3-0.1,1,3.3c0,0.2-0.4,1.6-1.6-0.3 c-0.3-0.5-1.4-3.3-1.8-3.3c-1.3,0-2.6-0.1-3.1,0.2c-0.4,0.2,0.6,2.2,2.2,4.8c1.4,2.1,2.8,3.8,5.3,4.2c0.5,0,1.7,0.1,2.1-0.1 c0.3-0.1-0.1-2,0.8-2.2c0.4-0.1,1.9,1.9,2.5,2.2c0.3,0.1,1.1,0.2,1.9,0.2c0.9,0,1.8,0.1,1.9-0.5c0.2-1.3-2.6-2.9-2.7-3.7 c-0.1-0.6,1-1.6,1.6-2.4C18.7,10.1,19.4,8.9,19,8.6z"/></svg><svg height="22" viewBox="0 0 20 22" width="20" x="4" y="248"><path d="M16.9,12.5v-1.7h-2.7c1-1,1.6-2.4,1.6-3.9c0-3.1-2.5-5.6-5.6-5.6c-3.1,0-5.6,2.5-5.6,5.6l0,3.9H3v1.7h1.5l0,1.7H3v1.7 h1.6l0,6l1.7,0l0-6.1h10.6v-1.7H6.3l0-1.7H16.9z M6.3,6.9C6.3,4.7,8,3,10.2,3C12.3,3,14,4.7,14,6.9s-1.7,3.9-3.9,3.9H6.3L6.3,6.9 z"/></svg><svg height="16" viewBox="0 0 14 16" width="14" x="4" y="274"><path d="M12.5,8.7V7.3h-2.1c0.7-0.8,1.2-1.8,1.2-3C11.7,1.9,9.7,0,7.3,0C5,0,3,1.9,3,4.3l0,3H1.8v1.3H3L3,10H1.8v1.3H3L3,16 l1.3,0l0-4.7h8.2V10H4.4l0-1.3H12.5z M4.4,4.3c0-1.6,1.3-3,3-3c1.6,0,3,1.3,3,3s-1.3,3-3,3h-3L4.4,4.3z"/></svg></svg>