<svg version="1.2" baseProfile="tiny" id="Слой_1" xmlns="http://www.w3.org/2000/svg" viewBox="0 0 24 24"><circle fill="#FFF" cx="12" cy="12" r="11.8"/><path fill="#4D729D" d="M12,23.8C5.5,23.8,0.3,18.5,0.3,12S5.5,0.3,12,0.3S23.8,5.5,23.8,12S18.5,23.8,12,23.8z M19,8.6 c-0.2-0.2-1-0.2-1.8-0.2c-0.8,0-1.6,0-1.8,0.1c-0.2,0.1-0.6,1-1.1,2c-0.6,1.1-1.3,2.2-1.7,2.2c-0.6,0-0.4-1.8-0.4-3.2 c0-0.9-0.1-1.2-0.2-1.2c-0.3-0.2-1.2-0.4-1.2-0.4S8.2,7.6,7.8,8.8c0.5,0.1,1.3-0.1,1,3.3c0,0.2-0.4,1.6-1.6-0.3 c-0.3-0.5-1.4-3.3-1.8-3.3c-1.3,0-2.6-0.1-3.1,0.2c-0.4,0.2,0.6,2.2,2.2,4.8c1.4,2.1,2.8,3.8,5.3,4.2c0.5,0,1.7,0.1,2.1-0.1 c0.3-0.1-0.1-2,0.8-2.2c0.4-0.1,1.9,1.9,2.5,2.2c0.3,0.1,1.1,0.2,1.9,0.2c0.9,0,1.8,0.1,1.9-0.5c0.2-1.3-2.6-2.9-2.7-3.7 c-0.1-0.6,1-1.6,1.6-2.4C18.7,10.1,19.4,8.9,19,8.6z"/></svg>