<svg version="1.2" baseProfile="tiny" id="Слой_1" xmlns="http://www.w3.org/2000/svg" xmlns:xlink="http://www.w3.org/1999/xlink" viewBox="0 0 40 40"><circle fill="#FFF" cx="20" cy="20" r="19.4"/><path fill="#4D729D" d="M20,39.4C9.3,39.4,0.6,30.7,0.6,20S9.3,0.6,20,0.6S39.4,9.3,39.4,20S30.7,39.4,20,39.4z M31.5,14.1	c-0.3-0.3-1.7-0.3-3-0.3c-1.4,0-2.7,0-3,0.1c-0.3,0.1-0.9,1.7-1.8,3.3c-1,1.8-2.1,3.6-2.9,3.6c-1,0-0.7-3-0.7-5.2	c0-1.5-0.2-1.9-0.4-2.1c-0.5-0.3-1.9-0.7-1.9-0.7s-4.2-0.3-4.8,1.5c0.8,0.1,2.2-0.2,1.6,5.5c0,0.3-0.6,2.6-2.6-0.5	c-0.5-0.8-2.4-5.5-3-5.5c-2.2-0.1-4.3-0.1-5.1,0.3C3.3,14.4,5,17.7,7.7,22c2.3,3.5,4.6,6.3,8.8,7c0.8,0.1,2.8,0.2,3.4-0.1	c0.4-0.2-0.1-3.3,1.4-3.6c0.7-0.1,3.2,3.2,4.1,3.6c0.6,0.2,1.8,0.3,3.1,0.3c1.4,0,3,0.1,3.1-0.8c0.3-2.1-4.2-4.9-4.4-6.2	c-0.1-0.9,1.7-2.7,2.6-4C31,16.6,32.2,14.7,31.5,14.1z"/><image width="138" height="138" xlink:href="9456625C5527B887.png" transform="matrix(.24 0 0 .24 6.29 6.29)"/></svg>