<svg version="1.2" baseProfile="tiny" id="Слой_1" xmlns="http://www.w3.org/2000/svg" viewBox="0 0 36 102"><g fill="#7E1321"><path d="M18.7,5.4c-0.6-0.6-1.4-1-2.3-1H6.9c-1.8,0-3.2,1.4-3.2,3.2v21.9c0,1.8,1.4,3.2,3.2,3.2h9.6 c1.8,0,3.2-1.4,3.2-3.2V7.7C19.7,6.8,19.3,6.1,18.7,5.4z M16.4,31.4H6.9c-1,0-1.7-0.8-1.7-1.7V7.8c0-1,0.8-1.7,1.7-1.7h9.6 c1,0,1.7,0.8,1.7,1.7v21.9C18.1,30.5,17.4,31.4,16.4,31.4z"/><path d="M10.2,7.1h2.9c0.3,0,0.5-0.2,0.5-0.5s-0.2-0.4-0.5-0.4h-2.9c-0.3,0-0.5,0.2-0.5,0.5 C9.7,6.9,9.9,7.1,10.2,7.1z"/><path d="M16.9,7.4H6.4c-0.3,0-0.5,0.2-0.5,0.5v19.4c0,0.3,0.2,0.5,0.5,0.5h4.7c-0.7,0.3-1.2,0.9-1.2,1.7 c0,1,0.8,1.8,1.8,1.8c1,0,1.8-0.8,1.8-1.8c0-0.8-0.5-1.4-1.2-1.7h4.7c0.3,0,0.5-0.2,0.5-0.5V7.9C17.4,7.7,17.2,7.4,16.9,7.4z M12.4,29.5c0,0.4-0.4,0.8-0.8,0.8c-0.4,0-0.8-0.4-0.8-0.8c0-0.4,0.4-0.8,0.8-0.8C12,28.7,12.4,29.1,12.4,29.5z M16.3,26.8H6.9V8.4 h9.5v17.8C16.3,26.5,16.3,26.7,16.3,26.8z"/></g><path fill="#7E1321" d="M27.3,42.7c-2.6-2.6-6.1-4-9.8-4s-7.2,1.4-9.8,4s-4,6.1-4,9.8s1.4,7.2,4,9.8c2.6,2.6,6.1,4,9.8,4	c1.9,0,3.7-0.4,5.4-1.1l-0.7-1.6c-1.5,0.6-3.1,1-4.7,1c-6.7,0-12.1-5.4-12.1-12.1s5.4-12.1,12.1-12.1s12.1,5.4,12.1,12.1	c0,2.9-1.8,4.3-3.5,4.3s-3.5-1.3-3.5-4.3c0-2.9-2.3-5.2-5.2-5.2s-5.2,2.3-5.2,5.2s2.3,5.2,5.2,5.2c1.7,0,3.2-0.8,4.1-2.1	c0.2,0.5,0.5,0.9,0.9,1.3c0.9,1,2.2,1.5,3.6,1.5c1.4,0,2.6-0.5,3.6-1.5c1-1.1,1.6-2.6,1.6-4.4C31.3,48.8,29.9,45.3,27.3,42.7z M17.5,56c-1.9,0-3.5-1.6-3.5-3.5s1.6-3.5,3.5-3.5s3.5,1.6,3.5,3.5S19.4,56,17.5,56z"/><g fill="#7E1321"><path d="M27.6,87.6c0.5-1.3,0.8-2.7,0.8-4.1c0-3.1-1.2-6-3.4-8.2c-2.2-2.2-5.1-3.4-8.2-3.4c-1.4,0-2.8,0.3-4,0.7 c-1-1.1-2.3-1.7-3.7-1.7c-2.8,0-5,2.3-5,5c0,1.5,0.7,2.9,1.8,3.8c-0.4,1.2-0.6,2.4-0.6,3.6c0,3.1,1.2,6,3.4,8.2 c2.2,2.2,5.1,3.4,8.2,3.4c1.3,0,2.5-0.2,3.6-0.6c1,1.3,2.5,2.1,4,2.1c2.8,0,5-2.3,5-5C29.6,90,28.9,88.5,27.6,87.6z M24.6,95.5 c-1.4,0-2.7-0.8-3.3-2c-0.1-0.2-0.3-0.3-0.5-0.3c-0.1,0-0.1,0-0.2,0c-1.2,0.5-2.5,0.7-3.7,0.7c-2.9,0-5.4-1.1-7.5-3.1 c-2-2-3.1-4.6-3.1-7.5c0-1.3,0.2-2.5,0.7-3.6c0.1-0.2,0-0.5-0.2-0.6c-1.1-0.8-1.7-2-1.7-3.3C5.1,73.8,6.9,72,9,72 c1.2,0,2.4,0.6,3.2,1.6c0.2,0.2,0.4,0.3,0.7,0.2c1.3-0.5,2.7-0.8,4-0.8c2.9,0,5.4,1.1,7.5,3.1c2,2,3.1,4.6,3.1,7.5 c0,1.4-0.3,2.8-0.8,4.1c-0.1,0.2,0,0.5,0.2,0.7c1.2,0.7,1.8,2,1.8,3.3C28.5,93.8,26.8,95.5,24.6,95.5z"/><path d="M17.6,81.8c-3.7-0.7-4-1.9-3.2-2.7c0.9-0.8,3.6-1.2,4.3,0.2c0.7,1.4,1.3,1.9,2.3,1.7s1.1-1.6,0.7-2.4 C21.4,78,20,76.4,17,76.4s-6,1.1-6,3.7c0,2.7,2.8,3.8,5.5,4.2c2.7,0.4,3.3,1.6,3,2.4s-1.5,1.7-3.3,1.5s-2.6-1.7-2.8-2.4 c-0.2-0.7-1.1-0.8-1.5-0.8s-1.6,0.5-1.1,2.3c0.6,1.7,2.4,3.1,6,3.1s5.7-2.3,5.7-4.3C22.8,83.9,21.3,82.5,17.6,81.8z"/></g></svg>